<svg id="Livello_1" data-name="Livello 1" xmlns="http://www.w3.org/2000/svg" viewBox="0 0 498.38 195.73"><defs><style>.cls-1{fill:#9cff00;}.cls-2{fill:#1d1e1c;}.cls-3{fill:none;}</style></defs><path class="cls-1" d="M8.42 119.82v66.41H491V119.82zm175.76 58.85q-5.94 5.27-10 5.26a3.1 3.1.0 01-2.4-1.07 3.92 3.92.0 01-1-2.73c0-1.56.68-4.16 2-7.79q6.57-17.93 6.58-22.9a3.28 3.28.0 00-.42-1.86 1.47 1.47.0 00-1.27-.6c-2.76.0-6.17 3.49-10.27 10.47a158.76 158.76.0 00-11.74 26.08 28.41 28.41.0 01-3.27.18 12.06 12.06.0 01-2.15-.18q9.19-25.36 9.19-30.86a9.92 9.92.0 00-.59-3.9 1.88 1.88.0 00-1.78-1.3q-3.24.0-9.39 10.26a153.2 153.2.0 00-11.85 25.8 12.62 12.62.0 01-1.75.18c-.21.0-.57.0-1.07-.05-1-.09-2-.13-2.91-.13q6.32-17.1 8.49-24.39c1.44-4.86 2.17-7.8 2.17-8.85a2 2 0 00-.27-1.14 1 1 0 00-.85-.38q-2.07.0-7.94 8.28c-.75 1.08-1.32 1.62-1.7 1.62q-.9.0-.9-.63c0-.72 1.6-3 4.79-7s6-5.92 8.39-5.92a3.83 3.83.0 012.94 1.06 4.63 4.63.0 011 3.16q0 3.27-3.23 12.54c.45-.62 1.34-2.11 2.69-4.44q7.62-13.11 13.94-13.12a4.74 4.74.0 014.16 1.86 7.32 7.32.0 011.29 4.32q0 2.6-2.23 11.38 5.77-10.87 9.63-14.2t7.17-3.31a5.39 5.39.0 014 1.5 5.22 5.22.0 011.49 3.83q0 4.51-6.8 23.65a31.47 31.47.0 00-1.89 6.12 1.32 1.32.0 00.29.92 1.1 1.1.0 00.84.31c.77.0 2.35-1 4.75-2.94a32.2 32.2.0 005.38-5.35c.62-.84 1.19-1.25 1.71-1.25s.71.17.71.53C190.12 172.84 188.13 175.16 184.18 178.67zm26 2.06c-3 2.16-5.81 3.24-8.39 3.24a6 6 0 01-3.74-1 3 3 0 01-1.27-2.35q0-2 5-14.11 6.31-15.22 6.31-17.29a2 2 0 00-.29-1.2 1.1 1.1.0 00-.91-.37c-1.3.0-3.35 1.37-6.2 4.12-1.1 1.07-1.88 1.61-2.33 1.61s-.62-.23-.62-.71c0-.78 1.56-2.37 4.71-4.78s5.92-3.6 8.38-3.6a3.8 3.8.0 013.71 3.58 9.19 9.19.0 01-.56 3.18q-.54 1.57-6.69 16.13c-3.19 8.16-4.8 12.49-4.8 13a1.59 1.59.0 00.35 1.14 1.2 1.2.0 001 .39 8.24 8.24.0 003.86-1.57 26.35 26.35.0 004.71-3.9c.65-.69 1.17-1 1.56-1s.81.25.81.73C214.71 177 213.19 178.56 210.18 180.73zm9.26-51.95a3.32 3.32.0 01-2.46 1 3.42 3.42.0 01-2.51-1 3.46 3.46.0 01-1-2.52 3.35 3.35.0 011.05-2.5 3.47 3.47.0 012.49-1 3.33 3.33.0 012.46 1 3.38 3.38.0 011 2.48A3.43 3.43.0 01219.44 128.78zm10.48 52.74c.84.0 2.5-1 5-3.09a26.58 26.58.0 005.34-5.6c.72-1.11 1.25-1.66 1.61-1.66a.67.67.0 01.76.75q0 1.53-5 6.73t-9.7 5.19a3.64 3.64.0 01-2.51-1 3.82 3.82.0 01-1.13-3 25.8 25.8.0 01.95-6.68q.94-3.51 8.68-28.25c3.42-10.81 5.11-17 5.11-18.5s-1.74-2.52-5.24-2.64c-1.31.0-2-.33-2-.9s.65-.93 2-.93l13.09-.46q-.86 3.09-7.8 25.41l-8.34 27.63a49.22 49.22.0 00-1.38 6.27C229.34 181.27 229.53 181.52 229.92 181.52zm50-2q-4.89 4.14-8.69 4.14c-1.74.0-2.6-1.17-2.6-3.53q0-2.46.31-6.26-6.94 9.39-14.52 9.39a5.38 5.38.0 01-4.84-2.4 9.6 9.6.0 01-1.56-5.39q0-8.66 8.62-19.87t16.28-11.23a4 4 0 013.2 1.4 7.65 7.65.0 011.51 4.21 58.65 58.65.0 012.54-5.39l2.74.45a10.59 10.59.0 001.26.27c-.84 1.85-2.52 6.82-5.07 14.87l-3.93 12.51a17.29 17.29.0 00-1.27 5.82 1.33 1.33.0 001.49 1.52 6.07 6.07.0 003-1.45 22.25 22.25.0 003.88-3.7c.84-1 1.42-1.48 1.76-1.48a.68.68.0 01.76.76C284.81 175 283.18 176.8 279.92 179.57zm46.11.0c-3 3-6 4.45-8.8 4.45s-4.13-1.15-4.13-3.44 2.2-9.32 6.58-20.79q2.56-6.63 2.56-9.94a2.55 2.55.0 00-.38-1.55 1.39 1.39.0 00-1.18-.52c-.91.0-2.58 1.15-5.05 3.43s-5.26 6.35-8.4 12.16a177.49 177.49.0 00-7.71 16.05c-1.21 3-2 4.51-2.41 4.51-2.93.0-4.39-.37-4.39-1.16l.13-.44 7.58-21.9q2.94-8 2.95-11.12.0-1.35-1.26-1.35c-.75.0-1.95.75-3.62 2.22a28.62 28.62.0 00-4 4.19c-.78 1-1.4 1.53-1.88 1.53s-.67-.24-.67-.72c0-1 1.61-3 4.86-6.09s6.36-4.66 9.34-4.66a2.57 2.57.0 012.2 1 3.59 3.59.0 01.77 2.16q0 1.78-2.29 12.76a56.94 56.94.0 018.92-11.88q4.15-4 7.74-4a3.81 3.81.0 013.24 1.51 5.87 5.87.0 011.11 3.56 19.75 19.75.0 01-.74 5.27q-.74 2.7-3.7 10.94-4 11.07-4 13c0 1 .43 1.47 1.3 1.47s2-.66 3.61-2a16 16 0 003.61-3.93c.78-1.33 1.42-2 1.93-2s.76.3.76.9C330.63 174.55 329.1 176.64 326 179.61zm37.92-3.3q-6.15 7.53-14.65 7.53-6.29.0-9.05-4.6a18.42 18.42.0 01-2.78-9.66 26.42 26.42.0 013.45-12.91c2.3-4.17 5-7.21 8-9.09a16.18 16.18.0 018.38-2.85 11 11 0 019.36 4.57 17.39 17.39.0 013.41 10.76A25.27 25.27.0 01364 176.31z"/><path class="cls-2" d="M366.67 149.3a11 11 0 00-9.36-4.57 16.18 16.18.0 00-8.38 2.85c-3.05 1.88-5.71 4.92-8 9.09a26.42 26.42.0 00-3.45 12.91 18.42 18.42.0 002.78 9.66q2.76 4.6 9.05 4.6 8.51.0 14.65-7.53a25.27 25.27.0 006.13-16.25A17.39 17.39.0 00366.67 149.3zm-5.28 19q-2.77 7-6.07 10.36T349.21 182a4.57 4.57.0 01-4-2.32 10.18 10.18.0 01-1.47-5.54A38.9 38.9.0 01346.68 160q2.93-7.54 5.95-10.44t5.54-2.9a5.19 5.19.0 014.49 2.07c1 1.39 1.51 3.47 1.51 6.27A36.14 36.14.0 01361.39 168.26z"/><path class="cls-1" d="M364.17 155a36.14 36.14.0 01-2.78 13.3q-2.77 7-6.07 10.36T349.21 182a4.57 4.57.0 01-4-2.32 10.18 10.18.0 01-1.47-5.54A38.9 38.9.0 01346.68 160q2.93-7.54 5.95-10.44t5.54-2.9a5.19 5.19.0 014.49 2.07C363.67 150.08 364.17 152.16 364.17 155z"/><path class="cls-2" d="M330.63 173.32c0 1.23-1.53 3.32-4.6 6.29s-6 4.45-8.8 4.45-4.13-1.15-4.13-3.44 2.2-9.32 6.58-20.79q2.56-6.63 2.56-9.94a2.55 2.55.0 00-.38-1.55 1.39 1.39.0 00-1.18-.52c-.91.0-2.58 1.15-5.05 3.43s-5.26 6.35-8.4 12.16a177.49 177.49.0 00-7.71 16.05c-1.21 3-2 4.51-2.41 4.51-2.93.0-4.39-.37-4.39-1.16l.13-.44 7.58-21.9q2.94-8 2.95-11.12.0-1.35-1.26-1.35c-.75.0-1.95.75-3.62 2.22a28.62 28.62.0 00-4 4.19c-.78 1-1.4 1.53-1.88 1.53s-.67-.24-.67-.72c0-1 1.61-3 4.86-6.09s6.36-4.66 9.34-4.66a2.57 2.57.0 012.2 1 3.59 3.59.0 01.77 2.16q0 1.78-2.29 12.76a56.94 56.94.0 018.92-11.88q4.15-4 7.74-4a3.81 3.81.0 013.24 1.51 5.87 5.87.0 011.11 3.56 19.75 19.75.0 01-.74 5.27q-.74 2.7-3.7 10.94-4 11.07-4 13c0 1 .43 1.47 1.3 1.47s2-.66 3.61-2a16 16 0 003.61-3.93c.78-1.33 1.42-2 1.93-2S330.63 172.72 330.63 173.32z"/><path class="cls-2" d="M284.05 173.45c-.34.0-.92.49-1.76 1.48a22.25 22.25.0 01-3.88 3.7 6.07 6.07.0 01-3 1.45 1.33 1.33.0 01-1.49-1.52 17.29 17.29.0 011.27-5.82l3.93-12.51c2.55-8 4.23-13 5.07-14.87a10.59 10.59.0 01-1.26-.27l-2.74-.45a58.65 58.65.0 00-2.54 5.39 7.65 7.65.0 00-1.51-4.21 4 4 0 00-3.2-1.4q-7.67.0-16.28 11.23T248 175.52a9.6 9.6.0 001.56 5.39 5.38 5.38.0 004.84 2.4q7.58.0 14.52-9.39-.31 3.79-.31 6.26c0 2.36.86 3.53 2.6 3.53q3.79.0 8.69-4.14c3.26-2.77 4.89-4.55 4.89-5.36A.68.68.0 00284.05 173.45zm-15-3.42q-5.31 9.53-10.51 9.52a3.53 3.53.0 01-3.05-1.47 7.54 7.54.0 01-1-4.33q0-4.83 2.91-12.1c1.94-4.86 4.16-8.52 6.67-11s4.63-3.75 6.36-3.75a3.3 3.3.0 012.85 1.69 7.68 7.68.0 011.1 4.22Q274.36 160.5 269.05 170z"/><path class="cls-1" d="M274.36 152.8q0 7.69-5.31 17.23t-10.51 9.52a3.53 3.53.0 01-3.05-1.47 7.54 7.54.0 01-1-4.33q0-4.83 2.91-12.1c1.94-4.86 4.16-8.52 6.67-11s4.63-3.75 6.36-3.75a3.3 3.3.0 012.85 1.69A7.68 7.68.0 01274.36 152.8z"/><path class="cls-2" d="M242.61 171.92q0 1.53-5 6.73t-9.7 5.19a3.64 3.64.0 01-2.51-1 3.82 3.82.0 01-1.13-3 25.8 25.8.0 01.95-6.68q.94-3.51 8.68-28.25c3.42-10.81 5.11-17 5.11-18.5s-1.74-2.52-5.24-2.64c-1.31.0-2-.33-2-.9s.65-.93 2-.93l13.09-.46q-.86 3.09-7.8 25.41l-8.34 27.63a49.22 49.22.0 00-1.38 6.27c0 .48.19.73.58.73.84.0 2.5-1 5-3.09a26.58 26.58.0 005.34-5.6c.72-1.11 1.25-1.66 1.61-1.66A.67.67.0 01242.61 171.92z"/><path class="cls-2" d="M220.47 126.26a3.43 3.43.0 01-1 2.52 3.32 3.32.0 01-2.46 1 3.42 3.42.0 01-2.51-1 3.46 3.46.0 01-1-2.52 3.35 3.35.0 011.05-2.5 3.47 3.47.0 012.49-1 3.33 3.33.0 012.46 1A3.38 3.38.0 01220.47 126.26z"/><path class="cls-2" d="M214.71 175.92c0 1-1.52 2.64-4.53 4.81s-5.81 3.24-8.39 3.24a6 6 0 01-3.74-1 3 3 0 01-1.27-2.35q0-2 5-14.11 6.31-15.22 6.31-17.29a2 2 0 00-.29-1.2 1.1 1.1.0 00-.91-.37c-1.3.0-3.35 1.37-6.2 4.12-1.1 1.07-1.88 1.61-2.33 1.61s-.62-.23-.62-.71c0-.78 1.56-2.37 4.71-4.78s5.92-3.6 8.38-3.6a3.8 3.8.0 013.71 3.58 9.19 9.19.0 01-.56 3.18q-.54 1.57-6.69 16.13c-3.19 8.16-4.8 12.49-4.8 13a1.59 1.59.0 00.35 1.14 1.2 1.2.0 001 .39 8.24 8.24.0 003.86-1.57 26.35 26.35.0 004.71-3.9c.65-.69 1.17-1 1.56-1S214.71 175.44 214.71 175.92z"/><path class="cls-2" d="M190.12 171.7c0 1.14-2 3.46-5.94 7s-7.28 5.26-10 5.26a3.1 3.1.0 01-2.4-1.07 3.92 3.92.0 01-1-2.73c0-1.56.68-4.16 2-7.79q6.57-17.93 6.58-22.9a3.28 3.28.0 00-.42-1.86 1.47 1.47.0 00-1.27-.6c-2.76.0-6.17 3.49-10.27 10.47a158.76 158.76.0 00-11.74 26.08 28.41 28.41.0 01-3.27.18 12.06 12.06.0 01-2.15-.18q9.19-25.36 9.19-30.86a9.92 9.92.0 00-.59-3.9 1.88 1.88.0 00-1.78-1.3q-3.24.0-9.39 10.26a153.2 153.2.0 00-11.85 25.8 12.62 12.62.0 01-1.75.18c-.21.0-.57.0-1.07-.05-1-.09-2-.13-2.91-.13q6.32-17.1 8.49-24.39c1.44-4.86 2.17-7.8 2.17-8.85a2 2 0 00-.27-1.14 1 1 0 00-.85-.38q-2.07.0-7.94 8.28c-.75 1.08-1.32 1.62-1.7 1.62q-.9.0-.9-.63c0-.72 1.6-3 4.79-7s6-5.92 8.39-5.92a3.83 3.83.0 012.94 1.06 4.63 4.63.0 011 3.16q0 3.27-3.23 12.54c.45-.62 1.34-2.11 2.69-4.44q7.62-13.11 13.94-13.12a4.74 4.74.0 014.16 1.86 7.32 7.32.0 011.29 4.32q0 2.6-2.23 11.38 5.77-10.87 9.63-14.2t7.17-3.31a5.39 5.39.0 014 1.5 5.22 5.22.0 011.49 3.83q0 4.51-6.8 23.65a31.47 31.47.0 00-1.89 6.12 1.32 1.32.0 00.29.92 1.1 1.1.0 00.84.31c.77.0 2.35-1 4.75-2.94a32.2 32.2.0 005.38-5.35c.62-.84 1.19-1.25 1.71-1.25S190.12 171.34 190.12 171.7z"/><path class="cls-2" d="M8.4 111.63V11.88H21.8c3.09.0 40.09-5 40.09 50.67.0 28.44-9.85 49.08-37.71 49.08zM44.22 62.41c0-12.7-3.56-32.81-18.15-32.81V93.91C40.3 94.7 44.22 74.86 44.22 62.41z"/><path class="cls-2" d="M118.75 11.88v99.75H101.08V11.88z"/><path class="cls-2" d="M178.8 11.88V93.11h18.5v18.52H161.13V11.88z"/><path class="cls-2" d="M262.69 11.88l8.66 58.87h.23l7.12-58.87h23.72l9.37 99.75H293.65l-4.28-71.84h-.24l-2.84 24.6-7.59 47.24H265.06L256.4 63.87l-3-22.22V39.79h-.24l-2.61 71.84h-19l7.83-99.75z"/><path class="cls-2" d="M410.29 61.75c0 37.45-15.65 51.47-31.43 51.47s-31.42-14-31.42-51.47 15.65-51.47 31.42-51.47 31.43 14.03 31.43 51.47zM378.86 95c11.74.0 12.57-25.26 12.57-33.21.0-8.86-.83-33.21-12.57-33.21s-12.57 24.35-12.57 33.21C366.29 69.7 367.13 95 378.86 95z"/><path class="cls-2" d="M486.25 34.36c-3.56-3.43-7.94-6.34-12.8-6.34-5.46.0-8.91 3.7-8.91 9.79.0 16.4 26.93 17.32 26.93 44.32.0 17.73-9.14 31.09-25.74 31.09-5 0-11.15-1.72-15.18-5V89.41c4.15 3.17 8.18 5.29 13.4 5.29 5.7.0 10.2-4.23 10.2-10.86.0-7.66-5.46-10.58-10.44-14.54-10.2-7.68-16.48-15.09-16.48-29.63.0-15.76 8.18-29.39 23.36-29.39a28 28 0 0115.66 4.9z"/><rect class="cls-3" x="-47.7" y="-199.38" width="595.28" height="595.28"/></svg>